<svg width="280" height="240" viewBox="0 0 280 240" fill="none" xmlns="http://www.w3.org/2000/svg">
<path fill-rule="evenodd" clip-rule="evenodd" d="M253.278 230.034H243.714C243.452 231.432 242.928 232.481 242.136 233.181C241.344 233.877 240.308 234.228 239.024 234.228C237.2 234.228 235.825 233.65 234.905 232.497C233.985 231.342 233.523 229.626 233.523 227.355H253.305C253.341 227.133 253.364 226.89 253.374 226.63C253.384 226.368 253.388 225.977 253.388 225.455C253.388 220.373 252.146 216.509 249.663 213.867C247.183 211.221 243.543 209.898 238.743 209.898C233.948 209.898 230.256 211.225 227.672 213.879C225.089 216.532 223.796 220.315 223.796 225.228C223.796 230.07 225.046 233.741 227.548 236.244C230.048 238.748 233.706 240 238.523 240C242.818 240 246.236 239.144 248.773 237.431C251.31 235.722 252.81 233.256 253.278 230.034ZM233.635 221.445C233.894 219.432 234.453 217.956 235.31 217.015C236.165 216.075 237.383 215.604 238.967 215.604C240.365 215.604 241.475 216.097 242.305 217.084C243.13 218.072 243.629 219.527 243.798 221.445H233.635ZM190.071 239.314H200.621C200.474 237.981 200.362 236.739 200.287 235.588C200.213 234.435 200.175 233.427 200.175 232.564V198.08H189.627V213.857C188.605 212.591 187.331 211.619 185.808 210.929C184.285 210.241 182.604 209.898 180.766 209.898C176.771 209.898 173.708 211.194 171.582 213.782C169.455 216.369 168.392 220.091 168.392 224.95C168.392 229.715 169.432 233.414 171.513 236.049C173.594 238.683 176.527 240 180.32 240C182.362 240 184.161 239.637 185.711 238.904C187.262 238.176 188.679 237.045 189.963 235.513L190.071 239.314ZM179.422 224.812C179.422 221.95 179.841 219.779 180.68 218.301C181.517 216.824 182.74 216.085 184.342 216.085C186.077 216.085 187.425 216.846 188.396 218.372C189.363 219.893 189.851 222.042 189.851 224.812C189.851 227.525 189.373 229.658 188.424 231.211C187.472 232.765 186.195 233.542 184.593 233.542C182.84 233.542 181.541 232.824 180.692 231.393C179.845 229.962 179.422 227.769 179.422 224.812ZM11.3957 226.05H0C0 230.587 1.45838 234.048 4.37508 236.428C7.28985 238.809 11.5313 240 17.0955 240C23.2159 240 27.8858 238.878 31.1111 236.633C34.3364 234.387 35.9501 231.16 35.9501 226.951C35.9501 223.893 35.0695 221.423 33.3065 219.531C31.5455 217.64 28.782 216.201 25.0163 215.213C24.1279 214.971 22.8876 214.659 21.2957 214.287C15.3089 212.846 12.3175 211.089 12.3175 209.011C12.3175 207.738 12.8187 206.709 13.8191 205.924C14.8175 205.137 16.1442 204.745 17.7912 204.745C19.4776 204.745 20.7611 205.191 21.6396 206.082C22.5201 206.973 22.9604 208.272 22.9604 209.979V210.174H34.3639V209.471C34.3639 205.48 32.9626 202.472 30.1618 200.441C27.3571 198.407 23.21 197.392 17.7146 197.392C12.5356 197.392 8.37869 198.529 5.2399 200.806C2.10303 203.081 0.534596 206.028 0.534596 209.65C0.534596 212.95 1.4839 215.517 3.38252 217.342C5.27723 219.172 8.94277 220.816 14.3733 222.269C14.9669 222.419 15.818 222.632 16.9304 222.912C21.7084 224.101 24.0984 225.743 24.0984 227.844C24.0984 229.313 23.5382 230.423 22.416 231.174C21.2957 231.925 19.6329 232.304 17.4296 232.304C15.5762 232.304 14.106 231.771 13.0211 230.705C11.9381 229.638 11.3957 228.179 11.3957 226.328V226.05ZM71.0668 228.246H60.241C60.241 230.127 59.9167 231.535 59.2741 232.475C58.6294 233.414 57.6742 233.885 56.4045 233.885C54.8007 233.885 53.6352 233.157 52.906 231.704C52.1788 230.253 51.8132 227.896 51.8132 224.639C51.8132 221.713 52.1984 219.511 52.963 218.031C53.7256 216.55 54.8754 215.811 56.4045 215.811C57.6545 215.811 58.6078 216.227 59.2603 217.057C59.9128 217.889 60.241 219.101 60.241 220.688H70.7876C70.7346 217.327 69.4453 214.685 66.9275 212.771C64.4098 210.857 60.9407 209.898 56.5185 209.898C51.5754 209.898 47.7506 211.184 45.0462 213.753C42.3436 216.323 40.9914 219.941 40.9914 224.615C40.9914 229.475 42.324 233.252 44.9911 235.951C47.6563 238.652 51.3887 240 56.1824 240C60.6617 240 64.2328 238.941 66.9 236.824C69.5671 234.707 70.9547 231.848 71.0668 228.246ZM76.7842 239.314H87.3328V222.914C87.3328 220.972 87.7455 219.476 88.575 218.421C89.4044 217.368 90.5719 216.84 92.0833 216.84C93.6852 216.84 94.8113 217.38 95.4639 218.464C96.1164 219.547 96.4407 221.682 96.4407 224.871V239.314H106.991V220.927C106.991 217.366 106.083 214.673 104.273 212.846C102.459 211.018 99.8055 210.105 96.309 210.105C94.3966 210.105 92.6493 210.496 91.0691 211.28C89.4889 212.061 88.2428 213.151 87.3328 214.549V198.08H76.7842V239.314ZM114.124 205.778H124.95V198.08H114.124V205.778ZM114.289 239.314H124.838V210.586H114.289V239.314ZM132.255 239.314H142.804V222.703C142.804 220.763 143.218 219.267 144.046 218.214C144.877 217.161 146.047 216.635 147.554 216.635C149.156 216.635 150.284 217.175 150.937 218.257C151.587 219.338 151.916 221.473 151.916 224.66V239.314H162.464V220.688C162.464 217.157 161.558 214.476 159.744 212.647C157.932 210.815 155.28 209.898 151.784 209.898C149.813 209.898 148.01 210.33 146.375 211.194C144.736 212.055 143.492 213.218 142.637 214.683L142.525 210.586H131.811C131.956 212.093 132.068 213.337 132.143 214.322C132.218 215.308 132.255 216.134 132.255 216.8V239.314ZM207.27 239.314H217.819L217.817 198.08H207.27V239.314H207.27ZM259.658 239.314H270.204V226.212C270.204 224.146 270.831 222.5 272.083 221.281C273.333 220.061 275.01 219.452 277.105 219.452C277.81 219.452 278.371 219.462 278.787 219.479C279.208 219.499 279.609 219.527 280 219.564V210.448H279.22C276.845 210.448 274.89 210.937 273.349 211.909C271.81 212.883 270.648 214.372 269.87 216.374V210.586H259.209C259.359 212.097 259.471 213.346 259.546 214.334C259.62 215.322 259.658 216.152 259.658 216.824V239.314Z" fill="#E30016"/>
<path d="M138.169 176.06C122.91 176.06 108.536 172.186 95.9898 165.377L137.147 90.8527L180.785 165.133C168.135 172.092 153.606 176.06 138.169 176.06Z" fill="url(#paint0_linear)"/>
<path d="M86.7224 158.878C64.4152 142.936 49.8411 116.944 49.8411 87.6802C49.8411 39.388 89.52 0 138.169 0C186.818 0 226.497 39.388 226.497 87.6802C226.497 116.909 211.956 142.874 189.694 158.82L167.254 120.622C176.487 112.577 182.333 100.784 182.333 87.6802C182.333 63.5337 162.494 43.8401 138.169 43.8401C113.844 43.8401 94.0049 63.5337 94.0049 87.6802C94.0049 100.389 99.5039 111.863 108.257 119.883L86.7224 158.878Z" fill="url(#paint1_linear)"/>
<defs>
<linearGradient id="paint0_linear" x1="149.36" y1="-29.298" x2="269.332" y2="64.3858" gradientUnits="userSpaceOnUse">
<stop stop-color="#1B1918"/>
<stop offset="1" stop-color="#B1B3B4"/>
</linearGradient>
<linearGradient id="paint1_linear" x1="226" y1="-142.944" x2="355.226" y2="-48.75" gradientUnits="userSpaceOnUse">
<stop stop-color="#B1B3B4"/>
<stop offset="1" stop-color="#1B1918"/>
</linearGradient>
</defs>
</svg>
