<?xml version="1.0" encoding="utf-8"?>
<!-- Generator: Adobe Illustrator 17.0.0, SVG Export Plug-In . SVG Version: 6.00 Build 0)  -->
<!DOCTYPE svg PUBLIC "-//W3C//DTD SVG 1.1//EN" "http://www.w3.org/Graphics/SVG/1.1/DTD/svg11.dtd">
<svg version="1.1" id="Capa_1" xmlns="http://www.w3.org/2000/svg" xmlns:xlink="http://www.w3.org/1999/xlink" x="0px" y="0px"
	 width="300px" height="300px" viewBox="0 0 300 300" enable-background="new 0 0 300 300" xml:space="preserve">
<g>
	<g>
		<g>
			<path fill="#E23B5B" d="M81.979,300c-0.788-12.933,2.871-41.247,5.401-58.735c-7.978-5.237-31.974-27.961-34.822-33.645
				c-0.506-1.013-0.035-2.965,1.118-5.52c4.637-10.344,20.253-30.49,26.325-37.422c1.153-1.33,1.954-2.165,2.271-2.365
				c1.977-1.235,7.885,3.119,9.732,4.554c2.459,8.473,6.096,15.274,11.45,18.393c5.813,3.401,14.392,5.66,23.854,6.684l-0.024,0.177
				c0,0,3.53,16.675,18.829,15.698c15.299-0.988,16.864-17.464,16.864-17.464l-0.106-0.411c7.095-1.742,13.309-4.367,17.664-7.921
				c3.883-3.166,6.555-7.779,8.391-12.462c0,0,0-0.012,0.011-0.012c2.259-1.612,27.868-19.783,29.55-17.535
				c0.211,0.283,0.8,1.024,1.671,2.142c5.073,6.448,19.653,25.077,24.513,34.775c1.294,2.577,1.907,4.53,1.471,5.449
				c-2.354,5.001-19.712,27.655-27.949,32.362l-0.541,0.106c3.46,17.511,10.686,51.921,17.899,73.151
				C233.399,300,81.979,300,81.979,300z"/>
			<path fill="#121D42" d="M209.863,86.02c0.189,3.53-12.945,1.565-10.591-0.988C201.625,82.489,209.733,83.855,209.863,86.02z"/>
			<path fill="#121D42" d="M197.307,74.64c3.142,0,1.377,11.38-1.765,10.203C194.247,84.349,194.165,74.64,197.307,74.64z"/>
			<path fill="#121D42" d="M102.762,87.221c-0.106,0.14-0.695,0.917-1.365,2.012c-2.083,2.777-6.543,7.708-13.463,10.109
				c-0.412,0.141-0.824,0.283-1.248,0.4c-5.354,1.565-19.417,1.177-20.206-5.096c-0.706-5.696,20.006-12.357,20.006-12.357
				s-18.629-3.33-18.041-12.157c0.588-8.826,17.264-4.119,23.536-4.707c0,0-7.261-3.93-2.742-8.438
				c4.272-4.272,9.215,6.084,30.597,0c15.522-4.413,35.493-19.617,57.852-7.849s14.322,37.07,13.533,38.646
				c0,0,15.698-0.588,17.852,10.003s-3.73,26.867-3.73,26.867l-1.483,0.141c-3.943-1.471-7.862,0.012-10.438,1.483l-0.236-0.836
				c-8.038-10.403-3.73-31.774-3.73-31.774s-54.604,11.685-58.052-0.4c-1.471-5.154,3.648-9.803,4.26-10.344
				c-1.436,1.024-27.067,19.24-35.446,14.863c-2.683-1.412-0.471-5.895,1.177-8.555C102.22,88.138,102.667,87.374,102.762,87.221z"
				/>
			<path fill="#F9D3CF" d="M162.873,189.945l0.106,0.411c0,0-1.565,16.475-16.864,17.464c-15.299,0.977-18.829-15.698-18.829-15.698
				l0.024-0.177C138.96,193.227,151.976,192.616,162.873,189.945z"/>
			<path fill="#E23B5B" d="M246.144,194.381c0.436-0.918-0.177-2.872-1.471-5.449c-4.86-9.697-19.44-28.326-24.513-34.775
				c-0.871-1.118-1.459-1.859-1.671-2.142c-1.683-2.248-27.291,15.923-29.55,17.535c-0.011,0-0.011,0.012-0.011,0.012
				c-1.735,4.428-4.233,8.779-7.781,11.917c-4.613,7.02-11.407,11.225-19.27,13.575c-1.684,4.951-5.824,12.123-15.761,12.766
				c-9.733,0.622-14.698-5.898-17.026-10.727c-5.339-0.462-10.538-1.145-15.336-1.83c-3.53-1.177-7.061-2.354-9.415-4.707
				c-2.448-2.448-3.668-5.305-4.519-8.229c-3.43-3.626-5.958-9.065-7.814-15.461c-1.847-1.435-7.755-5.79-9.732-4.554
				c-0.318,0.2-1.118,1.035-2.271,2.365c-6.072,6.932-21.688,27.078-26.325,37.422c-1.153,2.555-1.624,4.507-1.118,5.52
				c2.848,5.684,26.843,28.408,34.822,33.645c-2.53,17.488-6.19,45.802-5.401,58.735c0,0,151.421,0,153.574,0
				c-7.214-21.23-14.439-55.64-17.899-73.151l0.541-0.106C226.433,222.036,243.791,199.382,246.144,194.381z"/>
			<path fill="#F9D3CF" d="M129.089,197.093c2.328,4.829,7.293,11.349,17.026,10.727c9.936-0.642,14.077-7.815,15.761-12.766
				C151.883,198.041,140.185,198.053,129.089,197.093z"/>
			<path opacity="0.2" fill="#650E81" d="M180.537,182.024c-4.354,3.553-10.568,6.178-17.664,7.921
				c-10.897,2.671-23.913,3.282-35.564,2c-9.462-1.024-18.041-3.283-23.854-6.684c-1.313-0.765-2.522-1.754-3.636-2.933
				c0.851,2.924,1.817,4.862,4.372,7.199c5.149,4.707,19.559,7.105,24.898,7.567c11.095,0.96,22.794,0.948,32.786-2.039
				c7.863-2.35,14.657-6.555,19.27-13.575C180.942,181.66,180.749,181.852,180.537,182.024z"/>
			<path fill="#F9D3CF" d="M89.098,152.687l-0.059,0.012c-0.082,0.083-4.589,2.825-10.003-0.588
				c-8.355-5.249-6.414-18.746,0.977-21.771c4.319-1.765,7.261,0.588,7.261,0.588h0.129
				C87.592,137.977,88.086,145.508,89.098,152.687z"/>
			<path fill="#F9D3CF" d="M193.423,126.279c2.577-1.471,6.495-2.954,10.438-1.483c1.918,0.706,3.825,2.118,5.601,4.566
				c8.238,11.38-5.684,30.597-16.57,22.359c0,0-0.506,9.026-3.955,17.829c-0.011,0-0.011,0.012-0.011,0.012
				c-1.835,4.683-4.507,9.296-8.391,12.462c-4.354,3.553-10.568,6.178-17.664,7.921c-10.897,2.671-23.913,3.282-35.564,2
				c-9.462-1.024-18.041-3.283-23.854-6.684c-5.354-3.119-8.991-9.92-11.45-18.393c-1.259-4.377-2.201-9.191-2.907-14.18
				c-1.012-7.179-1.506-14.71-1.694-21.76c-0.482-16.875,0.753-30.986,0.753-30.986l-0.223-0.6
				c6.919-2.401,11.38-7.332,13.463-10.109c-1.647,2.659-3.86,7.142-1.177,8.555c8.379,4.377,34.01-13.839,35.446-14.863
				c-0.612,0.541-5.731,5.19-4.26,10.344c3.448,12.085,58.052,0.4,58.052,0.4s-4.307,21.371,3.73,31.774L193.423,126.279z"/>
			<path fill="#F9D3CF" d="M279.507,117.677c0.377-0.365,7.544-7.249,10.38-4.554c2.895,2.754-13.145,41.541-44.919,75.669
				l-0.294,0.141c-4.86-9.697-19.44-28.326-24.513-34.775l0.094-0.083c0,0,21.183-21.183,33.88-37.635c0,0-2.224-12.45,1.212-13.78
				c3.436-1.33,8.379,8.509,8.379,8.509s5.707-14.086,9.167-13.333c3.459,0.753-0.624,13.863-0.624,13.863s8.379-9.58,11.061-7.449
				C285.956,106.331,279.754,117.241,279.507,117.677z"/>
			<path fill="#F9D3CF" d="M27.834,108.156c-0.106-0.66-2.248-13.522,1.188-13.805c3.53-0.294,7.355,14.416,7.355,14.416
				s6.178-9.12,9.415-7.355c3.236,1.765-0.588,13.828-0.588,13.828c5.307,11.168,32.092,45.954,34.798,49.438
				c-6.072,6.932-21.688,27.078-26.325,37.422c-30.951-45.436-46.708-92.462-43.484-94.804c3.142-2.295,9.356,5.437,9.697,5.861
				c-0.224-0.554-4.919-12.086-2.048-13.805C20.702,97.635,27.446,107.579,27.834,108.156z"/>
		</g>
		<g>
			<path fill="#D39EA4" d="M205.838,132.155c0,0-0.209-0.069-0.592-0.153c-0.188-0.051-0.426-0.084-0.692-0.135
				c-0.272-0.024-0.573-0.085-0.906-0.098c-0.332-0.032-0.691-0.035-1.068-0.015c-0.377,0.011-0.77,0.076-1.172,0.132
				c-0.396,0.092-0.81,0.17-1.198,0.344c-0.41,0.122-0.768,0.367-1.149,0.564c-0.366,0.222-0.701,0.501-1.035,0.762
				c-0.288,0.317-0.605,0.599-0.858,0.922c-0.233,0.341-0.479,0.656-0.705,0.964c-0.184,0.337-0.358,0.656-0.519,0.95
				c-0.171,0.29-0.307,0.569-0.403,0.828c-0.107,0.255-0.2,0.477-0.277,0.66c-0.16,0.366-0.252,0.576-0.252,0.576l-0.012,0.027
				c-0.058,0.133-0.213,0.193-0.346,0.135c-0.121-0.053-0.182-0.187-0.148-0.311c0,0,0.063-0.227,0.173-0.625
				c0.059-0.199,0.13-0.44,0.211-0.717c0.071-0.281,0.176-0.591,0.341-0.911c0.151-0.326,0.314-0.68,0.487-1.054
				c0.225-0.348,0.455-0.724,0.714-1.099c0.273-0.365,0.62-0.696,0.94-1.056c0.37-0.309,0.749-0.636,1.165-0.901
				c0.435-0.239,0.865-0.492,1.336-0.629c0.454-0.187,0.925-0.268,1.378-0.359c0.454-0.062,0.901-0.104,1.318-0.083
				c0.419,0.009,0.811,0.041,1.169,0.101c0.719,0.099,1.291,0.291,1.687,0.431c0.197,0.068,0.351,0.138,0.458,0.186
				c0.101,0.048,0.154,0.073,0.154,0.073c0.132,0.062,0.188,0.22,0.126,0.352C206.105,132.14,205.963,132.196,205.838,132.155z"/>
		</g>
		<ellipse fill="#00082C" cx="105.417" cy="119.458" rx="5.198" ry="5.982"/>
		<ellipse fill="#00082C" cx="169.848" cy="115.437" rx="5.198" ry="5.982"/>
		<g>
			<path fill="#E989A3" d="M140.62,139.565c12.862-3.448,21.535,3.319,22.795,4.377c-3.272,6.661-10.286,12.804-22.207,13.663
				c-6.755,0.494-12.251-1.035-16.558-3.566l0.083-0.164C124.733,153.875,128.757,142.731,140.62,139.565z"/>
			<path fill="#00082C" d="M162.791,126.808c3.401,2.706,4.049,10.203,0.624,17.134c-1.26-1.058-9.933-7.825-22.795-4.377
				c-11.862,3.166-15.887,14.31-15.887,14.31l-0.083,0.164c-11.191-6.59-14.38-20.029-10.897-22.712
				C124.144,123.278,156.118,121.513,162.791,126.808z"/>
		</g>
		<g>
			<path fill="#D39EA4" d="M21.152,119.215c0,0,0.437-0.83,1.319-1.887c0.439-0.531,0.983-1.129,1.619-1.715
				c0.331-0.277,0.655-0.587,1.019-0.86c0.36-0.278,0.719-0.569,1.113-0.814c0.769-0.514,1.589-0.952,2.379-1.31
				c0.386-0.2,0.791-0.321,1.165-0.456c0.372-0.141,0.731-0.248,1.07-0.326c0.666-0.193,1.24-0.267,1.639-0.319
				c0.398-0.051,0.626-0.08,0.626-0.08c0.144-0.018,0.276,0.084,0.294,0.228c0.017,0.131-0.066,0.252-0.19,0.287l-0.024,0.007
				c0,0-0.214,0.06-0.588,0.164c-0.187,0.049-0.413,0.108-0.674,0.177c-0.258,0.076-0.539,0.193-0.853,0.291
				c-0.315,0.095-0.649,0.221-0.992,0.38c-0.347,0.148-0.712,0.302-1.076,0.493c-0.739,0.355-1.506,0.787-2.223,1.292
				c-0.369,0.236-0.724,0.495-1.07,0.754c-0.353,0.25-0.668,0.539-0.991,0.795c-0.61,0.554-1.199,1.057-1.649,1.544
				c-0.935,0.948-1.471,1.644-1.471,1.644c-0.089,0.116-0.255,0.137-0.371,0.048C21.12,119.471,21.094,119.326,21.152,119.215z"/>
		</g>
		<g>
			<path fill="#D39EA4" d="M276.994,123.738c0,0-0.442-0.759-1.245-1.821c-0.383-0.541-0.902-1.116-1.435-1.745
				c-0.287-0.296-0.562-0.623-0.879-0.917c-0.31-0.301-0.628-0.604-0.963-0.886c-0.646-0.593-1.349-1.121-2.036-1.569
				c-0.337-0.237-0.678-0.437-1.003-0.629c-0.319-0.203-0.634-0.37-0.934-0.506c-0.299-0.138-0.563-0.291-0.808-0.399
				c-0.249-0.101-0.466-0.19-0.645-0.263c-0.358-0.152-0.562-0.239-0.562-0.239l-0.023-0.01c-0.134-0.057-0.196-0.211-0.139-0.345
				c0.052-0.122,0.185-0.184,0.309-0.151c0,0,0.222,0.058,0.61,0.16c0.389,0.104,0.948,0.251,1.584,0.529
				c0.326,0.121,0.668,0.274,1.019,0.462c0.353,0.182,0.739,0.354,1.096,0.603c0.737,0.457,1.493,0.998,2.189,1.607
				c0.359,0.293,0.677,0.629,0.998,0.951c0.326,0.318,0.606,0.667,0.899,0.985c0.554,0.664,1.016,1.326,1.382,1.91
				c0.737,1.163,1.063,2.043,1.063,2.043c0.053,0.136-0.015,0.289-0.151,0.342C277.196,123.899,277.059,123.846,276.994,123.738z"/>
		</g>
	</g>
	<g>
		<g>
			<path fill="#FFFFFF" d="M99.207,240.4v-8.956h5.522v8.887c0,2.018,1.045,2.878,2.506,2.878c1.462,0,2.506-0.789,2.506-2.761
				v-9.003h5.522v8.84c0,5.546-3.225,7.726-8.075,7.726C102.339,248.01,99.207,245.783,99.207,240.4z"/>
			<path fill="#FFFFFF" d="M115.633,245.25l2.901-3.458c1.764,1.346,3.782,1.903,5.685,1.903c0.975,0,1.392-0.256,1.392-0.697
				v-0.046c0-0.464-0.51-0.719-2.251-1.067c-3.643-0.743-6.845-1.787-6.845-5.221v-0.047c0-3.085,2.413-5.476,6.892-5.476
				c3.132,0,5.453,0.743,7.332,2.228l-2.645,3.666c-1.531-1.114-3.365-1.601-4.873-1.601c-0.812,0-1.183,0.279-1.183,0.673v0.046
				c0,0.441,0.441,0.719,2.158,1.044c4.153,0.766,6.938,1.972,6.938,5.244v0.046c0,3.411-2.808,5.499-7.17,5.499
				C120.668,247.988,117.698,247.06,115.633,245.25z"/>
			<path fill="#FFFFFF" d="M132.246,240.4v-8.956h5.522v8.887c0,2.018,1.045,2.878,2.506,2.878c1.462,0,2.506-0.789,2.506-2.761
				v-9.003h5.522v8.84c0,5.546-3.225,7.726-8.075,7.726S132.246,245.783,132.246,240.4z"/>
			<path fill="#FFFFFF" d="M154.984,231.328h5.383l6.845,16.358h-5.894l-0.859-2.181h-5.684l-0.836,2.181h-5.801L154.984,231.328z
				 M159.114,241.653l-1.485-3.944l-1.485,3.944H159.114z"/>
			<path fill="#FFFFFF" d="M167.883,231.444h7.936c2.878,0,4.71,0.718,5.848,1.856c0.974,0.974,1.485,2.181,1.485,3.852v0.046
				c0,2.367-1.23,4.014-3.202,4.966l3.782,5.522h-6.195l-3.063-4.64h-1.16v4.64h-5.43V231.444z M175.656,239.17
				c1.299,0,2.088-0.58,2.088-1.578v-0.046c0-1.044-0.812-1.555-2.065-1.555h-2.367v3.179H175.656z"/>
			<path fill="#FFFFFF" d="M184.519,231.444h5.429v16.242h-5.429V231.444z"/>
			<path fill="#FFFFFF" d="M191.479,239.611v-0.046c0-4.71,3.875-8.469,8.888-8.469c5.011,0,8.84,3.712,8.84,8.423v0.046
				c0,4.71-3.875,8.469-8.888,8.469C195.308,248.034,191.479,244.321,191.479,239.611z M203.73,239.611v-0.046
				c0-1.926-1.323-3.666-3.411-3.666c-2.065,0-3.364,1.716-3.364,3.62v0.046c0,1.926,1.323,3.666,3.411,3.666
				C202.431,243.231,203.73,241.513,203.73,239.611z"/>
		</g>
		<g>
			<path fill="#FFFFFF" d="M99.207,252.843h5.582c2.024,0,3.313,0.505,4.113,1.306c0.686,0.685,1.045,1.534,1.045,2.709v0.033
				c0,1.665-0.865,2.824-2.252,3.493l2.66,3.884h-4.358l-2.154-3.264h-0.816v3.264h-3.819V252.843z M104.675,258.278
				c0.914,0,1.469-0.408,1.469-1.11v-0.033c0-0.734-0.571-1.094-1.453-1.094h-1.665v2.236H104.675z"/>
			<path fill="#FFFFFF" d="M110.876,252.843h9.744v3.134h-5.99v1.159h5.582v2.758h-5.582v1.241h6.072v3.134h-9.826V252.843z"/>
			<path fill="#FFFFFF" d="M121.304,258.588v-0.033c0-3.411,2.693-5.957,6.3-5.957c1.959,0,3.542,0.653,4.782,1.73l-2.138,2.579
				c-0.751-0.637-1.583-0.996-2.53-0.996c-1.485,0-2.562,1.143-2.562,2.693v0.033c0,1.616,1.126,2.725,2.726,2.725
				c0.653,0,1.012-0.098,1.306-0.261v-1.142h-1.959v-2.448h5.533v5.288c-1.24,1.012-2.97,1.714-5.043,1.714
				C124.161,264.513,121.304,262.13,121.304,258.588z"/>
			<path fill="#FFFFFF" d="M133.904,252.843h3.819v11.425h-3.819V252.843z"/>
			<path fill="#FFFFFF" d="M138.114,262.554l2.041-2.433c1.24,0.947,2.66,1.339,3.998,1.339c0.686,0,0.98-0.18,0.98-0.49v-0.033
				c0-0.326-0.359-0.506-1.583-0.75c-2.563-0.523-4.815-1.257-4.815-3.672v-0.033c0-2.17,1.697-3.852,4.848-3.852
				c2.203,0,3.836,0.523,5.158,1.567l-1.861,2.579c-1.077-0.784-2.367-1.126-3.428-1.126c-0.571,0-0.832,0.196-0.832,0.473v0.033
				c0,0.31,0.31,0.506,1.518,0.734c2.921,0.539,4.88,1.387,4.88,3.689v0.033c0,2.399-1.975,3.868-5.044,3.868
				C141.656,264.48,139.567,263.827,138.114,262.554z"/>
			<path fill="#FFFFFF" d="M152.411,256.074h-3.362v-3.231h10.544v3.231h-3.362v8.193h-3.82V256.074z"/>
			<path fill="#FFFFFF" d="M160.457,252.843h5.582c2.023,0,3.313,0.505,4.113,1.306c0.686,0.685,1.045,1.534,1.045,2.709v0.033
				c0,1.665-0.865,2.824-2.252,3.493l2.66,3.884h-4.358l-2.154-3.264h-0.816v3.264h-3.819V252.843z M165.925,258.278
				c0.914,0,1.469-0.408,1.469-1.11v-0.033c0-0.734-0.572-1.094-1.453-1.094h-1.665v2.236H165.925z"/>
			<path fill="#FFFFFF" d="M175.7,252.761h3.787l4.815,11.507h-4.146l-0.604-1.534h-3.999l-0.588,1.534h-4.08L175.7,252.761z
				 M178.605,260.024l-1.045-2.775l-1.045,2.775H178.605z"/>
			<path fill="#FFFFFF" d="M184.774,252.843h4.374c4.538,0,6.806,2.236,6.806,5.614v0.033c0,3.378-2.318,5.777-6.937,5.777h-4.243
				V252.843z M189.23,260.938c1.747,0,2.872-0.718,2.872-2.367v-0.033c0-1.648-1.126-2.367-2.872-2.367h-0.637v4.766H189.23z"/>
			<path fill="#FFFFFF" d="M196.737,258.588v-0.033c0-3.313,2.726-5.957,6.252-5.957c3.525,0,6.218,2.611,6.218,5.925v0.033
				c0,3.313-2.726,5.957-6.252,5.957C199.43,264.513,196.737,261.901,196.737,258.588z M205.354,258.588v-0.033
				c0-1.355-0.93-2.579-2.399-2.579c-1.452,0-2.366,1.207-2.366,2.546v0.033c0,1.355,0.93,2.579,2.399,2.579
				C204.441,261.134,205.354,259.926,205.354,258.588z"/>
		</g>
	</g>
</g>
</svg>
